<?xml version="1.0" encoding="UTF-8" standalone="no"?>
<!DOCTYPE svg PUBLIC "-//W3C//DTD SVG 1.1//EN"
 "http://www.w3.org/Graphics/SVG/1.1/DTD/svg11.dtd">
<!-- Generated by graphviz version 2.38.0 (20140413.2041)
 -->
<!-- Title: %3 Pages: 1 -->
<svg width="272pt" height="188pt"
 viewBox="0.00 0.00 272.44 188.00" xmlns="http://www.w3.org/2000/svg" xmlns:xlink="http://www.w3.org/1999/xlink">
<g id="graph0" class="graph" transform="scale(1 1) rotate(0) translate(4 184)">
<title>%3</title>
<polygon fill="white" stroke="none" points="-4,4 -4,-184 268.445,-184 268.445,4 -4,4"/>
<!-- A -->
<g id="node1" class="node"><title>A</title>
<ellipse fill="none" stroke="black" cx="27" cy="-162" rx="27" ry="18"/>
<text text-anchor="middle" x="27" y="-158.3" font-family="Times New Roman,serif" font-size="14.00">A</text>
</g>
<!-- B -->
<g id="node2" class="node"><title>B</title>
<ellipse fill="none" stroke="black" cx="27" cy="-90" rx="27" ry="18"/>
<text text-anchor="middle" x="27" y="-86.3" font-family="Times New Roman,serif" font-size="14.00">B</text>
</g>
<!-- A&#45;&gt;B -->
<g id="edge1" class="edge"><title>A&#45;&gt;B</title>
<path fill="none" stroke="black" d="M27,-143.697C27,-135.983 27,-126.712 27,-118.112"/>
<polygon fill="black" stroke="black" points="30.5001,-118.104 27,-108.104 23.5001,-118.104 30.5001,-118.104"/>
</g>
<!-- C -->
<g id="node3" class="node"><title>C</title>
<ellipse fill="none" stroke="black" cx="27" cy="-18" rx="27" ry="18"/>
<text text-anchor="middle" x="27" y="-14.3" font-family="Times New Roman,serif" font-size="14.00">C</text>
</g>
<!-- B&#45;&gt;C -->
<g id="edge2" class="edge"><title>B&#45;&gt;C</title>
<path fill="none" stroke="black" d="M27,-71.6966C27,-63.9827 27,-54.7125 27,-46.1124"/>
<polygon fill="black" stroke="black" points="30.5001,-46.1043 27,-36.1043 23.5001,-46.1044 30.5001,-46.1043"/>
</g>
<!-- X -->
<g id="node4" class="node"><title>X</title>
<ellipse fill="none" stroke="black" cx="99" cy="-162" rx="27" ry="18"/>
<text text-anchor="middle" x="99" y="-158.3" font-family="Times New Roman,serif" font-size="14.00">X</text>
</g>
<!-- Y -->
<g id="node5" class="node"><title>Y</title>
<ellipse fill="none" stroke="red" cx="99" cy="-90" rx="27" ry="18"/>
<text text-anchor="middle" x="99" y="-86.3" font-family="Times New Roman,serif" font-size="14.00">Y</text>
</g>
<!-- X&#45;&gt;Y -->
<g id="edge3" class="edge"><title>X&#45;&gt;Y</title>
<path fill="none" stroke="black" d="M99,-143.697C99,-135.983 99,-126.712 99,-118.112"/>
<polygon fill="black" stroke="black" points="102.5,-118.104 99,-108.104 95.5001,-118.104 102.5,-118.104"/>
</g>
<!-- Z -->
<g id="node6" class="node"><title>Z</title>
<ellipse fill="none" stroke="black" cx="99" cy="-18" rx="27" ry="18"/>
<text text-anchor="middle" x="99" y="-14.3" font-family="Times New Roman,serif" font-size="14.00">Z</text>
</g>
<!-- Y&#45;&gt;Z -->
<g id="edge4" class="edge"><title>Y&#45;&gt;Z</title>
<path fill="none" stroke="black" d="M99,-71.6966C99,-63.9827 99,-54.7125 99,-46.1124"/>
<polygon fill="black" stroke="black" points="102.5,-46.1043 99,-36.1043 95.5001,-46.1044 102.5,-46.1043"/>
</g>
<!-- 因果推断知识 -->
<g id="node7" class="node"><title>因果推断知识</title>
<ellipse fill="none" stroke="black" cx="204" cy="-162" rx="60.3893" ry="18"/>
<text text-anchor="middle" x="204" y="-158.3" font-family="Times New Roman,serif" font-size="14.00">因果推断知识</text>
</g>
<!-- 解决业务问题 -->
<g id="node8" class="node"><title>解决业务问题</title>
<ellipse fill="none" stroke="black" cx="204" cy="-90" rx="60.3893" ry="18"/>
<text text-anchor="middle" x="204" y="-86.3" font-family="Times New Roman,serif" font-size="14.00">解决业务问题</text>
</g>
<!-- 因果推断知识&#45;&gt;解决业务问题 -->
<g id="edge5" class="edge"><title>因果推断知识&#45;&gt;解决业务问题</title>
<path fill="none" stroke="black" d="M204,-143.697C204,-135.983 204,-126.712 204,-118.112"/>
<polygon fill="black" stroke="black" points="207.5,-118.104 204,-108.104 200.5,-118.104 207.5,-118.104"/>
</g>
<!-- 职位晋升 -->
<g id="node9" class="node"><title>职位晋升</title>
<ellipse fill="none" stroke="black" cx="204" cy="-18" rx="44.393" ry="18"/>
<text text-anchor="middle" x="204" y="-14.3" font-family="Times New Roman,serif" font-size="14.00">职位晋升</text>
</g>
<!-- 解决业务问题&#45;&gt;职位晋升 -->
<g id="edge6" class="edge"><title>解决业务问题&#45;&gt;职位晋升</title>
<path fill="none" stroke="black" d="M204,-71.6966C204,-63.9827 204,-54.7125 204,-46.1124"/>
<polygon fill="black" stroke="black" points="207.5,-46.1043 204,-36.1043 200.5,-46.1044 207.5,-46.1043"/>
</g>
</g>
</svg>
