<svg version="1.1" xmlns="http://www.w3.org/2000/svg" xmlns:xlink="http://www.w3.org/1999/xlink" class="wiz-svg-base" viewBox="0 116 794 205" id="svg_1639193623253_128592" style="background-color: rgb(255, 255, 255);"><g wiz-type="ink" stroke="#333333" stroke-linecap="round" stroke-linejoin="round" fill="none"><path d="M 170.3 162.7 L 184.8 166.8 L 185.5 167 L 187.5 168 L 188.3 168.7 L 188.7 169.2 L 189.6 170" stroke-width="1.6"></path></g><g wiz-type="ink" stroke="#333333" stroke-linecap="round" stroke-linejoin="round" fill="none"><path d="M 155.1 224.5 L 167 216.9 L 168.7 215.8 L 169.4 215.3 L 170.3 214.8 L 171.4 214.3 L 172.8 213.7 L 175.3 212.8" stroke-width="1.6"></path></g><g wiz-type="ink" stroke="#333333" stroke-linecap="round" stroke-linejoin="round" fill="none"><path d="M 150.8 270.1 L 157.7 261.5 L 160.1 258.7 L 161.6 257.1 L 162.3 256.4 L 163 255.7 L 164.4 254.4 L 171.9 247.8 L 173.7 246.1 L 175.9 243.8 L 194.1 224.6" stroke-width="1.6"></path></g><g wiz-type="ink" stroke="#333333" stroke-linecap="round" stroke-linejoin="round" fill="none"><path d="M 215.9 169.2 L 215.6 169.9 L 214.8 171.8 L 214.3 173 L 213.9 174.3 L 213.7 175.7 L 213.6 176.7 L 213.5 177.8 L 213.4 179 L 213.4 180.3 L 213.3 181.6 L 213.3 182.8 L 213.4 184 L 213.4 185 L 213.5 185.9 L 213.7 186.6 L 214.4 187.5 L 215.6 187.2 L 216.9 186.6 L 217.7 186.3 L 218.5 185.9 L 219.4 185.4 L 220.3 184.8 L 221.3 184.1 L 222.4 183.3 L 223 182.8 L 223.6 182.2 L 224.1 181.5 L 225.3 180.1 L 226 179.4 L 226.7 178.5 L 227.6 177.7 L 228.7 176.7 L 230 175.7 L 232 174.2 L 236.3 171.3 L 248.1 163.5 L 253.2 160.5 L 254.1 160 L 254.9 159.6 L 255.7 159.2 L 256.4 158.9 L 257.3 158.7 L 258.2 158.4 L 259.3 158 L 260.5 157.7 L 261.8 157.4 L 263 157.2 L 264.2 157.1 L 265.3 157 L 266.2 157.1 L 266.8 157.3 L 267.5 157.9 L 267.7 158.7 L 267.6 159.8 L 267.3 161.2 L 266.6 163.5 L 266.4 164.3 L 266.1 165.2 L 265.7 166.2 L 265.3 167.1 L 264.5 169.2 L 263.5 171.4 L 262.5 173.6 L 262.1 174.4 L 261.5 175.4 L 260.3 177.5 L 255 186.5" stroke-width="1.6"></path></g><g wiz-type="ink" stroke="#333333" stroke-linecap="round" stroke-linejoin="round" fill="none"><path d="M 233.2 198.5 L 230.5 206.5 L 230.2 207.5 L 230 208.3 L 229.8 209.6 L 230.1 211.3 L 230 212.6 L 229.8 213.4 L 229.5 214.2 L 229.2 215.2 L 228.5 217.2 L 223.5 230.8" stroke-width="1.6"></path></g><g wiz-type="ink" stroke="#333333" stroke-linecap="round" stroke-linejoin="round" fill="none"><path d="M 239.7 224.5 L 240.3 224.4 L 242 223.8 L 243 223.4 L 244.1 223.1 L 245.4 222.8 L 246.8 222.5 L 248.4 222.4 L 249.2 222.3 L 250.3 222.3 L 253.9 222.2 L 265.6 222.4" stroke-width="1.6"></path></g><g wiz-type="ink" stroke="#333333" stroke-linecap="round" stroke-linejoin="round" fill="none"><path d="M 271.2 176.8 L 272.6 180.9 L 273 182.2 L 273.3 183.3 L 273.6 184.4 L 273.8 185.6 L 274.3 188.9 L 274.4 189.8 L 274.7 191.1 L 275.3 193.3 L 275.5 194.2 L 275.6 195.7" stroke-width="1.6"></path></g><g wiz-type="ink" stroke="#333333" stroke-linecap="round" stroke-linejoin="round" fill="none"><path d="M 297.2 139.9 L 297.4 140 L 297.6 139.7 L 297.9 139.3 L 298.1 138.9 L 298.4 138.9 L 298.7 139.4 L 299 140.6 L 299.2 142.9 L 299.4 146.4 L 299.6 157.9 L 299 225.8 L 297.3 250.8 L 297.1 257.9 L 297.4 290.6 L 297.3 295 L 297.2 296.1 L 296.9 298.3 L 296.3 299.2 L 295.7 299.1 L 295.1 298.3 L 294.5 297.4 L 294.1 296.5" stroke-width="1.6"></path></g></svg>