<svg version="1.1" xmlns="http://www.w3.org/2000/svg" xmlns:xlink="http://www.w3.org/1999/xlink" class="wiz-svg-base" viewBox="0 0 794 375" id="svg_1639200462196_226263" style="background-color: rgb(255, 255, 255);"><path wiz-type="curve" stroke="#333333" stroke-width="3" fill="none" stroke-opacity="1" stroke-linecap="round" wiz-data=""></path><path wiz-type="curve" stroke="#333333" stroke-width="3" fill="none" stroke-opacity="1" stroke-linecap="round" wiz-data=""></path><path wiz-type="curve" stroke="#333333" stroke-width="3" fill="none" stroke-opacity="1" stroke-linecap="round" wiz-data=""></path><path wiz-type="curve" stroke="#333333" stroke-width="3" fill="none" stroke-opacity="1" stroke-linecap="round" wiz-data=""></path><path wiz-type="curve" stroke="#333333" stroke-width="3" fill="none" stroke-opacity="1" stroke-linecap="round" wiz-data=""></path><path wiz-type="curve" stroke="#333333" stroke-width="3" fill="none" stroke-opacity="1" stroke-linecap="round" wiz-data=""></path><path wiz-type="curve" stroke="#333333" stroke-width="3" fill="none" stroke-opacity="1" stroke-linecap="round" wiz-data=""></path><path wiz-type="curve" stroke="#333333" stroke-width="3" fill="none" stroke-opacity="1" stroke-linecap="round" wiz-data=""></path><path wiz-type="curve" stroke="#333333" stroke-width="2" fill="none" stroke-opacity="1" stroke-linecap="round" wiz-data=""></path><path wiz-type="curve" stroke="#333333" stroke-width="2" fill="none" stroke-opacity="1" stroke-linecap="round" wiz-data=""></path><path wiz-type="curve" stroke="#333333" stroke-width="2" fill="none" stroke-opacity="1" stroke-linecap="round" wiz-data=""></path><path wiz-type="curve" stroke="#333333" stroke-width="2" fill="none" stroke-opacity="1" stroke-linecap="round" wiz-data=""></path><path wiz-type="curve" stroke="#333333" stroke-width="2" fill="none" stroke-opacity="1" stroke-linecap="round" wiz-data=""></path><path wiz-type="curve" stroke="#333333" stroke-width="2" fill="none" stroke-opacity="1" stroke-linecap="round" wiz-data=""></path><path wiz-type="curve" stroke="#333333" stroke-width="2" fill="none" stroke-opacity="1" stroke-linecap="round" wiz-data=""></path><path wiz-type="curve" stroke="#333333" stroke-width="2" fill="none" stroke-opacity="1" stroke-linecap="round" wiz-data=""></path><path wiz-type="curve" stroke="#333333" stroke-width="2" fill="none" stroke-opacity="1" stroke-linecap="round" wiz-data=""></path><path wiz-type="curve" stroke="#333333" stroke-width="2" fill="none" stroke-opacity="1" stroke-linecap="round" wiz-data=""></path><path wiz-type="curve" stroke="#333333" stroke-width="2" fill="none" stroke-opacity="1" stroke-linecap="round" wiz-data=""></path><path wiz-type="curve" stroke="#333333" stroke-width="2" fill="none" stroke-opacity="1" stroke-linecap="round" wiz-data=""></path><path wiz-type="curve" stroke="#333333" stroke-width="2" fill="none" stroke-opacity="1" stroke-linecap="round" wiz-data=""></path><path wiz-type="curve" stroke="#333333" stroke-width="2" fill="none" stroke-opacity="1" stroke-linecap="round" wiz-data=""></path><path wiz-type="curve" stroke="#333333" stroke-width="2" fill="none" stroke-opacity="1" stroke-linecap="round" wiz-data=""></path><path wiz-type="curve" stroke="#333333" stroke-width="2" fill="none" stroke-opacity="1" stroke-linecap="round" wiz-data=""></path><path wiz-type="curve" stroke="#333333" stroke-width="2" fill="none" stroke-opacity="1" stroke-linecap="round" wiz-data=""></path><path wiz-type="curve" stroke="#333333" stroke-width="2" fill="none" stroke-opacity="1" stroke-linecap="round" wiz-data=""></path><path wiz-type="curve" stroke="#333333" stroke-width="2" fill="none" stroke-opacity="1" stroke-linecap="round" wiz-data=""></path><path wiz-type="curve" stroke="#333333" stroke-width="2" fill="none" stroke-opacity="1" stroke-linecap="round" wiz-data=""></path><path wiz-type="curve" stroke="#333333" stroke-width="2" fill="none" stroke-opacity="1" stroke-linecap="round" wiz-data=""></path><path wiz-type="curve" stroke="#333333" stroke-width="2" fill="none" stroke-opacity="1" stroke-linecap="round" wiz-data=""></path><path wiz-type="curve" stroke="#333333" stroke-width="2" fill="none" stroke-opacity="1" stroke-linecap="round" wiz-data=""></path><path wiz-type="curve" stroke="#333333" stroke-width="2" fill="none" stroke-opacity="1" stroke-linecap="round" wiz-data=""></path><path wiz-type="curve" stroke="#333333" stroke-width="2" fill="none" stroke-opacity="1" stroke-linecap="round" wiz-data=""></path><path wiz-type="curve" stroke="#333333" stroke-width="2" fill="none" stroke-opacity="1" stroke-linecap="round" wiz-data=""></path><path wiz-type="curve" stroke="#333333" stroke-width="2" fill="none" stroke-opacity="1" stroke-linecap="round" wiz-data=""></path><path wiz-type="curve" stroke="#333333" stroke-width="2" fill="none" stroke-opacity="1" stroke-linecap="round" wiz-data="42.30 194.16 42.30 193.08 43.39 211.52 42.30 219.11 41.22 219.11 42.30 214.77" d="M42.30, 194.16 C42.30,193.98 42.12,190.18 42.30,193.08 C42.48,195.97 43.39,207.18 43.39,211.52 C43.39,215.86 42.66,217.84 42.30,219.11 C41.94,220.37 41.22,219.83 41.22,219.11 C41.22,218.39 42.30,214.77 42.30,214.77"></path><path wiz-type="curve" stroke="#333333" stroke-width="2" fill="none" stroke-opacity="1" stroke-linecap="round" wiz-data=""></path><path wiz-type="curve" stroke="#333333" stroke-width="2" fill="none" stroke-opacity="1" stroke-linecap="round" wiz-data="46.64 194.16 50.98 191.99 67.25 190.91 66.17 195.25 67.25 220.19 66.17 221.28 64.00 220.19 50.98 211.52" d="M46.64, 194.16 C47.37,193.80 47.55,192.53 50.98,191.99 C54.42,191.45 64.72,190.36 67.25,190.91 C69.78,191.45 66.17,190.36 66.17,195.25 C66.17,200.13 67.25,215.86 67.25,220.19 C67.25,224.53 66.71,221.28 66.17,221.28 C65.62,221.28 66.53,221.82 64.00,220.19 C61.47,218.57 50.98,211.52 50.98,211.52"></path><path wiz-type="curve" stroke="#333333" stroke-width="2" fill="none" stroke-opacity="1" stroke-linecap="round" wiz-data=""></path><path wiz-type="curve" stroke="#333333" stroke-width="2" fill="none" stroke-opacity="1" stroke-linecap="round" wiz-data="45.56 202.84 54.23 197.42 59.66 196.33" d="M45.56, 202.84 C47.00,201.93 51.88,198.50 54.23,197.42 C56.59,196.33 59.66,196.33 59.66,196.33"></path><path wiz-type="curve" stroke="#333333" stroke-width="2" fill="none" stroke-opacity="1" stroke-linecap="round" wiz-data=""></path><path wiz-type="curve" stroke="#333333" stroke-width="2" fill="none" stroke-opacity="1" stroke-linecap="round" wiz-data="56.40 195.25 48.81 208.26 57.49 205.01 59.66 206.09 58.57 209.35 52.07 214.77 62.91 208.26 67.25 203.92" d="M56.40, 195.25 C55.14,197.42 48.63,206.64 48.81,208.26 C48.99,209.89 55.68,205.37 57.49,205.01 C59.30,204.65 59.48,205.37 59.66,206.09 C59.84,206.82 59.84,207.90 58.57,209.35 C57.31,210.79 51.34,214.95 52.07,214.77 C52.79,214.59 60.38,210.07 62.91,208.26 C65.44,206.45 67.25,203.92 67.25,203.92"></path><path wiz-type="curve" stroke="#333333" stroke-width="2" fill="none" stroke-opacity="1" stroke-linecap="round" wiz-data=""></path><path wiz-type="curve" stroke="#333333" stroke-width="2" fill="none" stroke-opacity="1" stroke-linecap="round" wiz-data="73.76 189.82 73.76 188.74 74.84 201.75" d="M73.76, 189.82 C73.76,189.64 73.58,186.75 73.76,188.74 C73.94,190.73 74.84,201.75 74.84,201.75"></path><path wiz-type="curve" stroke="#333333" stroke-width="2" fill="none" stroke-opacity="1" stroke-linecap="round" wiz-data=""></path><path wiz-type="curve" stroke="#333333" stroke-width="2" fill="none" stroke-opacity="1" stroke-linecap="round" wiz-data="78.10 187.65 78.10 188.74 86.78 189.82 87.86 191.99 81.35 198.50 73.76 199.58" d="M78.10, 187.65 C78.10,187.83 76.65,188.38 78.10,188.74 C79.54,189.10 85.15,189.28 86.78,189.82 C88.40,190.36 88.76,190.55 87.86,191.99 C86.96,193.44 83.70,197.23 81.35,198.50 C79.00,199.77 73.76,199.58 73.76,199.58"></path><path wiz-type="curve" stroke="#333333" stroke-width="2" fill="none" stroke-opacity="1" stroke-linecap="round" wiz-data=""></path><path wiz-type="curve" stroke="#333333" stroke-width="2" fill="none" stroke-opacity="1" stroke-linecap="round" wiz-data="73.76 195.25 84.61 195.25 73.76 201.75 84.61 200.67 68.34 211.52 90.03 203.92 92.20 200.67 91.11 198.50 87.86 198.50" d="M73.76, 195.25 C75.57,195.25 84.61,194.16 84.61,195.25 C84.61,196.33 73.76,200.85 73.76,201.75 C73.76,202.66 85.51,199.04 84.61,200.67 C83.70,202.30 67.43,210.97 68.34,211.52 C69.24,212.06 86.05,205.73 90.03,203.92 C94.01,202.12 92.02,201.57 92.20,200.67 C92.38,199.77 91.84,198.86 91.11,198.50 C90.39,198.14 87.86,198.50 87.86,198.50"></path><path wiz-type="curve" stroke="#333333" stroke-width="2" fill="none" stroke-opacity="1" stroke-linecap="round" wiz-data=""></path><path wiz-type="curve" stroke="#333333" stroke-width="2" fill="none" stroke-opacity="1" stroke-linecap="round" wiz-data="82.44 191.99 81.35 190.91 82.44 229.96" d="M82.44, 191.99 C82.26,191.81 81.35,184.58 81.35,190.91 C81.35,197.23 82.44,229.96 82.44,229.96"></path><path wiz-type="curve" stroke="#333333" stroke-width="2" fill="none" stroke-opacity="1" stroke-linecap="round" wiz-data=""></path><path wiz-type="curve" stroke="#333333" stroke-width="2" fill="none" stroke-opacity="1" stroke-linecap="round" wiz-data="81.35 207.18 78.10 213.69 72.67 216.94" d="M81.35, 207.18 C80.81,208.26 79.54,212.06 78.10,213.69 C76.65,215.31 72.67,216.94 72.67,216.94"></path><path wiz-type="curve" stroke="#333333" stroke-width="2" fill="none" stroke-opacity="1" stroke-linecap="round" wiz-data=""></path><path wiz-type="curve" stroke="#333333" stroke-width="2" fill="none" stroke-opacity="1" stroke-linecap="round" wiz-data="81.35 211.52 98.71 215.86" d="M81.35, 211.52 C84.24,212.24 98.71,215.86 98.71,215.86"></path><path wiz-type="curve" stroke="#333333" stroke-width="2" fill="none" stroke-opacity="1" stroke-linecap="round" wiz-data=""></path><path wiz-type="curve" stroke="#333333" stroke-width="2" fill="none" stroke-opacity="1" stroke-linecap="round" wiz-data="100.88 191.99 100.88 189.82 98.71 194.16 98.71 200.67 105.22 199.58 114.98 195.25 110.64 195.25 107.39 193.08 108.47 205.01 108.47 215.86 107.39 219.11 101.96 218.02 100.88 213.69 112.81 199.58 126.91 194.16 124.74 194.16" d="M100.88, 191.99 C100.88,191.63 101.24,189.46 100.88,189.82 C100.52,190.18 99.07,192.35 98.71,194.16 C98.35,195.97 97.62,199.77 98.71,200.67 C99.79,201.57 102.50,200.49 105.22,199.58 C107.93,198.68 114.07,195.97 114.98,195.25 C115.88,194.52 111.90,195.61 110.64,195.25 C109.37,194.88 107.75,191.45 107.39,193.08 C107.02,194.70 108.29,201.21 108.47,205.01 C108.65,208.80 108.65,213.51 108.47,215.86 C108.29,218.21 108.47,218.75 107.39,219.11 C106.30,219.47 103.05,218.93 101.96,218.02 C100.88,217.12 99.07,216.76 100.88,213.69 C102.68,210.61 108.47,202.84 112.81,199.58 C117.15,196.33 124.92,195.07 126.91,194.16 C128.90,193.26 124.74,194.16 124.74,194.16"></path><path wiz-type="curve" stroke="#333333" stroke-width="2" fill="none" stroke-opacity="1" stroke-linecap="round" wiz-data=""></path><path wiz-type="curve" stroke="#333333" stroke-width="2" fill="none" stroke-opacity="1" stroke-linecap="round" wiz-data="119.32 190.91 117.15 193.08 114.98 201.75 121.49 203.92 123.66 202.84 114.98 210.43 116.06 211.52 119.32 210.43 126.91 206.09 127.99 203.92 122.57 203.92 122.57 221.28 119.32 224.53 117.15 218.02 118.23 213.69 122.57 210.43" d="M119.32, 190.91 C118.96,191.27 117.87,191.27 117.15,193.08 C116.42,194.88 114.26,199.95 114.98,201.75 C115.70,203.56 120.04,203.74 121.49,203.92 C122.93,204.10 124.74,201.75 123.66,202.84 C122.57,203.92 116.24,208.99 114.98,210.43 C113.71,211.88 115.34,211.52 116.06,211.52 C116.79,211.52 117.51,211.34 119.32,210.43 C121.12,209.53 125.46,207.18 126.91,206.09 C128.36,205.01 128.72,204.29 127.99,203.92 C127.27,203.56 123.47,201.03 122.57,203.92 C121.67,206.82 123.11,217.84 122.57,221.28 C122.03,224.71 120.22,225.08 119.32,224.53 C118.41,223.99 117.33,219.83 117.15,218.02 C116.97,216.22 117.33,214.95 118.23,213.69 C119.14,212.42 122.57,210.43 122.57,210.43"></path><path wiz-type="curve" stroke="#333333" stroke-width="2" fill="none" stroke-opacity="1" stroke-linecap="round" wiz-data=""></path><path wiz-type="curve" stroke="#333333" stroke-width="2" fill="none" stroke-opacity="1" stroke-linecap="round" wiz-data="141.01 189.82 136.67 196.33 131.25 200.67 136.67 196.33 139.93 197.42 137.76 205.01 132.33 210.43 132.33 211.52 134.50 207.18 137.76 208.26 138.84 218.02 137.76 222.36 136.67 221.28" d="M141.01, 189.82 C140.29,190.91 138.30,194.52 136.67,196.33 C135.05,198.14 131.25,200.67 131.25,200.67 C131.25,200.67 135.23,196.87 136.67,196.33 C138.12,195.79 139.75,195.97 139.93,197.42 C140.11,198.86 139.02,202.84 137.76,205.01 C136.49,207.18 133.24,209.35 132.33,210.43 C131.43,211.52 131.97,212.06 132.33,211.52 C132.69,210.97 133.60,207.72 134.50,207.18 C135.41,206.64 137.03,206.45 137.76,208.26 C138.48,210.07 138.84,215.67 138.84,218.02 C138.84,220.37 138.12,221.82 137.76,222.36 C137.40,222.91 136.67,221.28 136.67,221.28"></path><path wiz-type="curve" stroke="#333333" stroke-width="2" fill="none" stroke-opacity="1" stroke-linecap="round" wiz-data=""></path><path wiz-type="curve" stroke="#333333" stroke-width="2" fill="none" stroke-opacity="1" stroke-linecap="round" wiz-data="145.35 198.50 155.11 194.16 151.86 208.26 156.20 209.35 159.45 205.01 150.77 209.35 145.35 215.86 164.87 213.69" d="M145.35, 198.50 C146.98,197.78 154.03,192.53 155.11,194.16 C156.20,195.79 151.68,205.73 151.86,208.26 C152.04,210.79 154.93,209.89 156.20,209.35 C157.46,208.80 160.35,205.01 159.45,205.01 C158.55,205.01 153.12,207.54 150.77,209.35 C148.42,211.15 143.00,215.13 145.35,215.86 C147.70,216.58 164.87,213.69 164.87,213.69"></path><path wiz-type="curve" stroke="#333333" stroke-width="2" fill="none" stroke-opacity="1" stroke-linecap="round" wiz-data=""></path><path wiz-type="curve" stroke="#333333" stroke-width="2" fill="none" stroke-opacity="1" stroke-linecap="round" wiz-data=""></path><path wiz-type="curve" stroke="#333333" stroke-width="2" fill="none" stroke-opacity="1" stroke-linecap="round" wiz-data=""></path><path wiz-type="curve" stroke="#333333" stroke-width="2" fill="none" stroke-opacity="1" stroke-linecap="round" wiz-data=""></path><path wiz-type="curve" stroke="#333333" stroke-width="2" fill="none" stroke-opacity="1" stroke-linecap="round" wiz-data=""></path><path wiz-type="curve" stroke="#333333" stroke-width="2" fill="none" stroke-opacity="1" stroke-linecap="round" wiz-data=""></path><path wiz-type="curve" stroke="#333333" stroke-width="2" fill="none" stroke-opacity="1" stroke-linecap="round" wiz-data=""></path><path wiz-type="curve" stroke="#333333" stroke-width="2" fill="none" stroke-opacity="1" stroke-linecap="round" wiz-data=""></path><path wiz-type="curve" stroke="#333333" stroke-width="2" fill="none" stroke-opacity="1" stroke-linecap="round" wiz-data=""></path><path wiz-type="curve" stroke="#333333" stroke-width="2" fill="none" stroke-opacity="1" stroke-linecap="round" wiz-data=""></path><path wiz-type="curve" stroke="#333333" stroke-width="2" fill="none" stroke-opacity="1" stroke-linecap="round" wiz-data=""></path><path wiz-type="curve" stroke="#333333" stroke-width="2" fill="none" stroke-opacity="1" stroke-linecap="round" wiz-data=""></path><path wiz-type="curve" stroke="#333333" stroke-width="2" fill="none" stroke-opacity="1" stroke-linecap="round" wiz-data=""></path><path wiz-type="curve" stroke="#333333" stroke-width="2" fill="none" stroke-opacity="1" stroke-linecap="round" wiz-data=""></path><path wiz-type="curve" stroke="#333333" stroke-width="2" fill="none" stroke-opacity="1" stroke-linecap="round" wiz-data=""></path><path wiz-type="curve" stroke="#333333" stroke-width="2" fill="none" stroke-opacity="1" stroke-linecap="round" wiz-data="167.04 308.05 165.96 308.05 183.31 304.80 178.98 304.80" d="M167.04, 308.05 C166.86,308.05 163.25,308.60 165.96,308.05 C168.67,307.51 181.14,305.34 183.31,304.80 C185.48,304.26 178.98,304.80 178.98,304.80"></path><path wiz-type="curve" stroke="#333333" stroke-width="2" fill="none" stroke-opacity="1" stroke-linecap="round" wiz-data=""></path><path wiz-type="curve" stroke="#333333" stroke-width="2" fill="none" stroke-opacity="1" stroke-linecap="round" wiz-data="171.38 305.89 168.13 352.53 168.13 350.36" d="M171.38, 305.89 C170.84,313.66 168.67,345.12 168.13,352.53 C167.59,359.94 168.13,350.36 168.13,350.36"></path><path wiz-type="curve" stroke="#333333" stroke-width="2" fill="none" stroke-opacity="1" stroke-linecap="round" wiz-data=""></path><path wiz-type="curve" stroke="#333333" stroke-width="2" fill="none" stroke-opacity="1" stroke-linecap="round" wiz-data="167.04 328.66 184.40 321.07" d="M167.04, 328.66 C169.94,327.40 184.40,321.07 184.40,321.07"></path><path wiz-type="curve" stroke="#333333" stroke-width="2" fill="none" stroke-opacity="1" stroke-linecap="round" wiz-data=""></path><path wiz-type="curve" stroke="#333333" stroke-width="2" fill="none" stroke-opacity="1" stroke-linecap="round" wiz-data="199.58 301.55 197.42 297.21 194.16 302.63 193.08 322.16 190.91 324.33 185.48 323.24" d="M199.58, 301.55 C199.22,300.82 198.32,297.03 197.42,297.21 C196.51,297.39 194.88,298.47 194.16,302.63 C193.44,306.79 193.62,318.54 193.08,322.16 C192.53,325.77 192.17,324.14 190.91,324.33 C189.64,324.51 185.48,323.24 185.48,323.24"></path><path wiz-type="curve" stroke="#333333" stroke-width="2" fill="none" stroke-opacity="1" stroke-linecap="round" wiz-data=""></path><path wiz-type="curve" stroke="#333333" stroke-width="2" fill="none" stroke-opacity="1" stroke-linecap="round" wiz-data="184.40 310.22 188.74 308.05 201.75 306.97" d="M184.40, 310.22 C185.12,309.86 185.85,308.60 188.74,308.05 C191.63,307.51 201.75,306.97 201.75,306.97"></path><path wiz-type="curve" stroke="#333333" stroke-width="2" fill="none" stroke-opacity="1" stroke-linecap="round" wiz-data=""></path><path wiz-type="curve" stroke="#333333" stroke-width="2" fill="none" stroke-opacity="1" stroke-linecap="round" wiz-data="184.40 46.64 183.31 46.64 202.84 44.47 201.75 46.64" d="M184.40, 46.64 C184.22,46.64 180.24,47.00 183.31,46.64 C186.39,46.28 199.77,44.47 202.84,44.47 C205.91,44.47 201.75,46.64 201.75,46.64"></path><path wiz-type="curve" stroke="#333333" stroke-width="2" fill="none" stroke-opacity="1" stroke-linecap="round" wiz-data=""></path><path wiz-type="curve" stroke="#333333" stroke-width="2" fill="none" stroke-opacity="1" stroke-linecap="round" wiz-data="189.82 50.98 184.40 94.37 184.40 93.28" d="M189.82, 50.98 C188.92,58.21 185.30,87.32 184.40,94.37 C183.49,101.42 184.40,93.28 184.40,93.28"></path><path wiz-type="curve" stroke="#333333" stroke-width="2" fill="none" stroke-opacity="1" stroke-linecap="round" wiz-data=""></path><path wiz-type="curve" stroke="#333333" stroke-width="2" fill="none" stroke-opacity="1" stroke-linecap="round" wiz-data="186.57 71.59 205.01 67.25 205.01 65.08" d="M186.57, 71.59 C189.64,70.87 201.93,68.34 205.01,67.25 C208.08,66.17 205.01,65.08 205.01,65.08"></path><path wiz-type="curve" stroke="#333333" stroke-width="2" fill="none" stroke-opacity="1" stroke-linecap="round" wiz-data=""></path><path wiz-type="curve" stroke="#333333" stroke-width="2" fill="none" stroke-opacity="1" stroke-linecap="round" wiz-data=""></path><path wiz-type="curve" stroke="#333333" stroke-width="2" fill="none" stroke-opacity="1" stroke-linecap="round" wiz-data=""></path><path wiz-type="curve" stroke="#333333" stroke-width="2" fill="none" stroke-opacity="1" stroke-linecap="round" wiz-data="214.77 40.13 214.77 39.05 215.86 47.73 212.60 55.32 216.94 43.39 221.28 36.88 222.36 41.22 219.11 53.15 227.79 40.13 229.96 49.90 232.13 52.07 240.80 50.98" d="M214.77, 40.13 C214.77,39.95 214.59,37.78 214.77,39.05 C214.95,40.31 216.22,45.02 215.86,47.73 C215.49,50.44 212.42,56.04 212.60,55.32 C212.78,54.60 215.49,46.46 216.94,43.39 C218.39,40.31 220.37,37.24 221.28,36.88 C222.18,36.52 222.72,38.51 222.36,41.22 C222.00,43.93 218.21,53.33 219.11,53.15 C220.01,52.97 225.98,40.68 227.79,40.13 C229.59,39.59 229.23,47.91 229.96,49.90 C230.68,51.88 230.32,51.88 232.13,52.07 C233.93,52.25 240.80,50.98 240.80,50.98"></path><path wiz-type="curve" stroke="#333333" stroke-width="2" fill="none" stroke-opacity="1" stroke-linecap="round" wiz-data=""></path><path fill="none" paint-order="fill stroke markers" stroke-linecap="round" stroke-linejoin="round" stroke-miterlimit="10" stroke-dasharray="" d="M 228.9 81.4 L 336.3 146.4" stroke="#333333" stroke-width="3" stroke-opacity="1" wiz-type="path"></path><path fill="none" paint-order="fill stroke markers" stroke-linecap="round" stroke-linejoin="round" stroke-miterlimit="10" stroke-dasharray="" d="M 228.9 81.4" stroke="#333333" stroke-width="3" stroke-opacity="1" wiz-type="path"></path><path fill="none" paint-order="fill stroke markers" stroke-linecap="round" stroke-linejoin="round" stroke-miterlimit="10" stroke-dasharray="" d="M 197.4 205" stroke="#333333" stroke-width="3" stroke-opacity="1" wiz-type="path"></path><g wiz-type="pathGroup"><path fill="none" paint-order="fill stroke markers" stroke-linecap="round" stroke-linejoin="round" stroke-miterlimit="10" stroke-dasharray="" d="M 197.4 205 L 329.7 167" stroke="#333333" stroke-width="3" stroke-opacity="1"></path><path fill="none" paint-order="fill stroke markers" stroke-linecap="round" stroke-linejoin="round" stroke-miterlimit="10" stroke-dasharray="" d="M 320 164.6 L 329.7 167 L 322.8 174.2" stroke="#333333" stroke-width="3" stroke-opacity="1"></path></g><path fill="none" paint-order="fill stroke markers" stroke-linecap="round" stroke-linejoin="round" stroke-miterlimit="10" stroke-dasharray="" d="M 338.4 134.5" stroke="#333333" stroke-width="3" stroke-opacity="1" wiz-type="path"></path><path fill="none" paint-order="fill stroke markers" stroke-linecap="round" stroke-linejoin="round" stroke-miterlimit="10" stroke-dasharray="" d="M 335.2 135.6" stroke="#333333" stroke-width="3" stroke-opacity="1" wiz-type="path"></path><path fill="none" paint-order="fill stroke markers" stroke-linecap="round" stroke-linejoin="round" stroke-miterlimit="10" stroke-dasharray="" d="M 335.2 136.7" stroke="#333333" stroke-width="3" stroke-opacity="1" wiz-type="path"></path><path fill="none" paint-order="fill stroke markers" stroke-linecap="round" stroke-linejoin="round" stroke-miterlimit="10" stroke-dasharray="" d="M 334.1 136.7" stroke="#333333" stroke-width="3" stroke-opacity="1" wiz-type="path"></path><path fill="none" paint-order="fill stroke markers" stroke-linecap="round" stroke-linejoin="round" stroke-miterlimit="10" stroke-dasharray="" d="M 334.1 136.7 L 336.3 147.5 L 323.2 147.5" stroke="#333333" stroke-width="3" stroke-opacity="1" wiz-type="path"></path><path fill="none" paint-order="fill stroke markers" stroke-linecap="round" stroke-linejoin="round" stroke-miterlimit="10" stroke-dasharray="" d="M 373.1 145.3" stroke="#333333" stroke-width="3" stroke-opacity="1" wiz-type="path"></path><path fill="none" paint-order="fill stroke markers" stroke-linecap="round" stroke-linejoin="round" stroke-miterlimit="10" stroke-dasharray="" d="M 373.1 145.3 L 374.2 145.3 L 375.3 146.4 L 378.6 149.7 L 381.8 155.1 L 386.2 164.9 L 389.4 170.3 L 390.5 174.6 L 391.6 176.8 L 391.6 174.6 L 390.5 170.3 L 389.4 168.1" stroke="#333333" stroke-width="3" stroke-opacity="1" wiz-type="path"></path><path fill="none" paint-order="fill stroke markers" stroke-linecap="round" stroke-linejoin="round" stroke-miterlimit="10" stroke-dasharray="" d="M 395.9 144.3 L 368.8 177.9" stroke="#333333" stroke-width="3" stroke-opacity="1" wiz-type="path"></path><path fill="none" paint-order="fill stroke markers" stroke-linecap="round" stroke-linejoin="round" stroke-miterlimit="10" stroke-dasharray="" d="M 395.9 144.3" stroke="#333333" stroke-width="3" stroke-opacity="1" wiz-type="path"></path><path fill="none" paint-order="fill stroke markers" stroke-linecap="round" stroke-linejoin="round" stroke-miterlimit="10" stroke-dasharray="" d="M 405.7 132.3" stroke="#333333" stroke-width="3" stroke-opacity="1" wiz-type="path"></path><path wiz-type="curve" stroke="#333333" stroke-width="2" fill="none" stroke-opacity="1" stroke-linecap="round" wiz-data=""></path><path wiz-type="curve" stroke="#333333" stroke-width="2" fill="none" stroke-opacity="1" stroke-linecap="round" wiz-data="405.68 136.67 406.76 135.59 406.76 142.10 403.51 148.60 404.59 144.27 412.19 134.50 415.44 133.42 416.52 134.50 416.52 138.84 411.10 146.43 417.61 132.33 419.78 131.25 423.03 145.35 425.20 146.43 429.54 144.27" d="M405.68, 136.67 C405.86,136.49 406.58,134.68 406.76,135.59 C406.94,136.49 407.30,139.93 406.76,142.10 C406.22,144.27 403.87,148.24 403.51,148.60 C403.15,148.97 403.15,146.62 404.59,144.27 C406.04,141.91 410.38,136.31 412.19,134.50 C413.99,132.69 414.72,133.42 415.44,133.42 C416.16,133.42 416.34,133.60 416.52,134.50 C416.71,135.41 417.43,136.85 416.52,138.84 C415.62,140.83 410.92,147.52 411.10,146.43 C411.28,145.35 416.16,134.86 417.61,132.33 C419.06,129.80 418.87,129.08 419.78,131.25 C420.68,133.42 422.13,142.82 423.03,145.35 C423.94,147.88 424.12,146.62 425.20,146.43 C426.29,146.25 429.54,144.27 429.54,144.27"></path><path wiz-type="curve" stroke="#333333" stroke-width="2" fill="none" stroke-opacity="1" stroke-linecap="round" wiz-data=""></path><path wiz-type="curve" stroke="#333333" stroke-width="2" fill="none" stroke-opacity="1" stroke-linecap="round" wiz-data="368.80 252.73 368.80 251.65 372.05 255.99 389.41 288.53 385.07 277.68" d="M368.80, 252.73 C368.80,252.55 368.26,251.11 368.80,251.65 C369.34,252.19 368.62,249.84 372.05,255.99 C375.49,262.14 387.24,284.91 389.41,288.53 C391.58,292.15 385.07,277.68 385.07,277.68"></path><path wiz-type="curve" stroke="#333333" stroke-width="2" fill="none" stroke-opacity="1" stroke-linecap="round" wiz-data=""></path><path wiz-type="curve" stroke="#333333" stroke-width="2" fill="none" stroke-opacity="1" stroke-linecap="round" wiz-data="388.32 257.07 388.32 254.90 366.63 280.94 359.04 284.19 361.20 278.77" d="M388.32, 257.07 C388.32,256.71 391.94,250.93 388.32,254.90 C384.71,258.88 371.51,276.06 366.63,280.94 C361.75,285.82 359.94,284.55 359.04,284.19 C358.13,283.83 361.20,278.77 361.20,278.77"></path><path wiz-type="curve" stroke="#333333" stroke-width="2" fill="none" stroke-opacity="1" stroke-linecap="round" wiz-data=""></path><path wiz-type="curve" stroke="#333333" stroke-width="2" fill="none" stroke-opacity="1" stroke-linecap="round" wiz-data=""></path><path wiz-type="curve" stroke="#333333" stroke-width="2" fill="none" stroke-opacity="1" stroke-linecap="round" wiz-data="408.93 245.14 408.93 241.89 403.51 242.97 401.34 247.31 400.25 273.34 398.08 277.68 394.83 274.43" d="M408.93, 245.14 C408.93,244.60 409.84,242.25 408.93,241.89 C408.03,241.53 404.77,242.07 403.51,242.97 C402.24,243.88 401.88,242.25 401.34,247.31 C400.80,252.37 400.80,268.28 400.25,273.34 C399.71,278.41 398.99,277.50 398.08,277.68 C397.18,277.86 394.83,274.43 394.83,274.43"></path><path wiz-type="curve" stroke="#333333" stroke-width="2" fill="none" stroke-opacity="1" stroke-linecap="round" wiz-data=""></path><path wiz-type="curve" stroke="#333333" stroke-width="2" fill="none" stroke-opacity="1" stroke-linecap="round" wiz-data="392.66 255.99 413.27 255.99" d="M392.66, 255.99 C396.10,255.99 413.27,255.99 413.27,255.99"></path><path wiz-type="curve" stroke="#333333" stroke-width="2" fill="none" stroke-opacity="1" stroke-linecap="round" wiz-data=""></path><path wiz-type="curve" stroke="#333333" stroke-width="2" fill="none" stroke-opacity="1" stroke-linecap="round" wiz-data=""></path><path wiz-type="curve" stroke="#333333" stroke-width="2" fill="none" stroke-opacity="1" stroke-linecap="round" wiz-data=""></path><path fill="none" paint-order="fill stroke markers" stroke-linecap="round" stroke-linejoin="round" stroke-miterlimit="10" stroke-dasharray="" d="M 201.8 214.8" stroke="#333333" stroke-width="3" stroke-opacity="1" wiz-type="path"></path><g wiz-type="pathGroup"><path fill="none" paint-order="fill stroke markers" stroke-linecap="round" stroke-linejoin="round" stroke-miterlimit="10" stroke-dasharray="" d="M 201.8 214.8 L 334.1 259.2" stroke="#333333" stroke-width="3" stroke-opacity="1"></path><path fill="none" paint-order="fill stroke markers" stroke-linecap="round" stroke-linejoin="round" stroke-miterlimit="10" stroke-dasharray="" d="M 327.5 251.7 L 334.1 259.2 L 324.3 261.2" stroke="#333333" stroke-width="3" stroke-opacity="1"></path></g><path fill="none" paint-order="fill stroke markers" stroke-linecap="round" stroke-linejoin="round" stroke-miterlimit="10" stroke-dasharray="" d="M 328.7 250.6" stroke="#333333" stroke-width="3" stroke-opacity="1" wiz-type="path"></path><path fill="none" paint-order="fill stroke markers" stroke-linecap="round" stroke-linejoin="round" stroke-miterlimit="10" stroke-dasharray="" d="M 213.7 336.3" stroke="#333333" stroke-width="3" stroke-opacity="1" wiz-type="path"></path><g wiz-type="pathGroup"><path fill="none" paint-order="fill stroke markers" stroke-linecap="round" stroke-linejoin="round" stroke-miterlimit="10" stroke-dasharray="" d="M 213.7 336.3 L 334.1 288.5" stroke="#333333" stroke-width="3" stroke-opacity="1"></path><path fill="none" paint-order="fill stroke markers" stroke-linecap="round" stroke-linejoin="round" stroke-miterlimit="10" stroke-dasharray="" d="M 324.2 287.1 L 334.1 288.5 L 327.9 296.4" stroke="#333333" stroke-width="3" stroke-opacity="1"></path></g><path fill="none" paint-order="fill stroke markers" stroke-linecap="round" stroke-linejoin="round" stroke-miterlimit="10" stroke-dasharray="" d="M 317.8 286.4" stroke="#333333" stroke-width="3" stroke-opacity="1" wiz-type="path"></path><path fill="none" paint-order="fill stroke markers" stroke-linecap="round" stroke-linejoin="round" stroke-miterlimit="10" stroke-dasharray="" d="M 439.3 154" stroke="#333333" stroke-width="3" stroke-opacity="1" wiz-type="path"></path><path fill="none" paint-order="fill stroke markers" stroke-linecap="round" stroke-linejoin="round" stroke-miterlimit="10" stroke-dasharray="" d="M 472.9 102" stroke="#333333" stroke-width="3" stroke-opacity="1" wiz-type="path"></path><path fill="none" paint-order="fill stroke markers" stroke-linecap="round" stroke-linejoin="round" stroke-miterlimit="10" stroke-dasharray="" d="M 470.8 102" stroke="#333333" stroke-width="3" stroke-opacity="1" wiz-type="path"></path><path fill="none" paint-order="fill stroke markers" stroke-linecap="round" stroke-linejoin="round" stroke-miterlimit="10" stroke-dasharray="" d="M 418.7 274.4" stroke="#333333" stroke-width="3" stroke-opacity="1" wiz-type="path"></path><g wiz-type="pathGroup"><path fill="none" paint-order="fill stroke markers" stroke-linecap="round" stroke-linejoin="round" stroke-miterlimit="10" stroke-dasharray="" d="M 418.7 274.4 L 488.1 312.4" stroke="#333333" stroke-width="3" stroke-opacity="1"></path><path fill="none" paint-order="fill stroke markers" stroke-linecap="round" stroke-linejoin="round" stroke-miterlimit="10" stroke-dasharray="" d="M 482.9 303.9 L 488.1 312.4 L 478.1 312.6" stroke="#333333" stroke-width="3" stroke-opacity="1"></path></g><path fill="none" paint-order="fill stroke markers" stroke-linecap="round" stroke-linejoin="round" stroke-miterlimit="10" stroke-dasharray="" d="M 489.2 305.9" stroke="#333333" stroke-width="3" stroke-opacity="1" wiz-type="path"></path><path wiz-type="curve" stroke="#333333" stroke-width="2" fill="none" stroke-opacity="1" stroke-linecap="round" wiz-data=""></path><path wiz-type="curve" stroke="#333333" stroke-width="2" fill="none" stroke-opacity="1" stroke-linecap="round" wiz-data=""></path><path wiz-type="curve" stroke="#333333" stroke-width="2" fill="none" stroke-opacity="1" stroke-linecap="round" wiz-data=""></path><path wiz-type="curve" stroke="#333333" stroke-width="2" fill="none" stroke-opacity="1" stroke-linecap="round" wiz-data=""></path><path fill="none" paint-order="fill stroke markers" stroke-linecap="round" stroke-linejoin="round" stroke-miterlimit="10" stroke-dasharray="" d="M 267.9 58.6" stroke="#333333" stroke-width="3" stroke-opacity="1" wiz-type="path"></path><path fill="none" paint-order="fill stroke markers" stroke-linecap="round" stroke-linejoin="round" stroke-miterlimit="10" stroke-dasharray="" d="M 443.6 52.1" stroke="#333333" stroke-width="3" stroke-opacity="1" wiz-type="path"></path><path fill="none" paint-order="fill stroke markers" stroke-linecap="round" stroke-linejoin="round" stroke-miterlimit="10" stroke-dasharray="" d="M 249.5 349.3" stroke="#333333" stroke-width="3" stroke-opacity="1" wiz-type="path"></path><g wiz-type="pathGroup"><path fill="none" paint-order="fill stroke markers" stroke-linecap="round" stroke-linejoin="round" stroke-miterlimit="10" stroke-dasharray="" d="M 249.5 349.3 L 477.3 349.3" stroke="#333333" stroke-width="3" stroke-opacity="1"></path><path fill="none" paint-order="fill stroke markers" stroke-linecap="round" stroke-linejoin="round" stroke-miterlimit="10" stroke-dasharray="" d="M 468.6 344.3 L 477.3 349.3 L 468.6 354.3" stroke="#333333" stroke-width="3" stroke-opacity="1"></path></g><path fill="none" paint-order="fill stroke markers" stroke-linecap="round" stroke-linejoin="round" stroke-miterlimit="10" stroke-dasharray="" d="M 464.3 334.1" stroke="#333333" stroke-width="3" stroke-opacity="1" wiz-type="path"></path><path wiz-type="curve" stroke="#333333" stroke-width="2" fill="none" stroke-opacity="1" stroke-linecap="round" wiz-data=""></path><path wiz-type="curve" stroke="#333333" stroke-width="2" fill="none" stroke-opacity="1" stroke-linecap="round" wiz-data=""></path><path wiz-type="curve" stroke="#333333" stroke-width="2" fill="none" stroke-opacity="1" stroke-linecap="round" wiz-data=""></path><path wiz-type="curve" stroke="#333333" stroke-width="2" fill="none" stroke-opacity="1" stroke-linecap="round" wiz-data=""></path><path wiz-type="curve" stroke="#333333" stroke-width="2" fill="none" stroke-opacity="1" stroke-linecap="round" wiz-data="516.32 318.90 517.40 315.65 523.91 329.75 523.91 333.00" d="M516.32, 318.90 C516.50,318.36 516.14,313.84 517.40,315.65 C518.67,317.46 522.83,326.86 523.91,329.75 C524.99,332.64 523.91,333.00 523.91,333.00"></path><path wiz-type="curve" stroke="#333333" stroke-width="2" fill="none" stroke-opacity="1" stroke-linecap="round" wiz-data=""></path><path wiz-type="curve" stroke="#333333" stroke-width="2" fill="none" stroke-opacity="1" stroke-linecap="round" wiz-data="534.76 318.90 535.84 318.90 534.76 323.24 531.50 326.49 522.83 330.83 523.91 329.75 526.08 330.83 523.91 354.70 528.25 347.10" d="M534.76, 318.90 C534.94,318.90 535.84,318.18 535.84,318.90 C535.84,319.62 535.48,321.97 534.76,323.24 C534.03,324.51 533.49,325.23 531.50,326.49 C529.51,327.76 524.09,330.29 522.83,330.83 C521.56,331.38 523.37,329.75 523.91,329.75 C524.45,329.75 526.08,326.68 526.08,330.83 C526.08,334.99 523.55,351.98 523.91,354.70 C524.27,357.41 528.25,347.10 528.25,347.10"></path><path wiz-type="curve" stroke="#333333" stroke-width="2" fill="none" stroke-opacity="1" stroke-linecap="round" wiz-data=""></path><path wiz-type="curve" stroke="#333333" stroke-width="2" fill="none" stroke-opacity="1" stroke-linecap="round" wiz-data="553.20 315.65 552.11 312.39 547.77 312.39 544.52 314.56 542.35 321.07 543.43 333.00 540.18 336.26 538.01 335.17" d="M553.20, 315.65 C553.02,315.11 553.02,312.94 552.11,312.39 C551.21,311.85 549.04,312.03 547.77,312.39 C546.51,312.76 545.42,313.12 544.52,314.56 C543.62,316.01 542.53,318.00 542.35,321.07 C542.17,324.14 543.80,330.47 543.43,333.00 C543.07,335.53 541.08,335.90 540.18,336.26 C539.28,336.62 538.01,335.17 538.01,335.17"></path><path wiz-type="curve" stroke="#333333" stroke-width="2" fill="none" stroke-opacity="1" stroke-linecap="round" wiz-data=""></path><path wiz-type="curve" stroke="#333333" stroke-width="2" fill="none" stroke-opacity="1" stroke-linecap="round" wiz-data="536.93 322.16 548.86 321.07 554.28 323.24" d="M536.93, 322.16 C538.91,321.97 545.97,320.89 548.86,321.07 C551.75,321.25 554.28,323.24 554.28,323.24"></path><path wiz-type="curve" stroke="#333333" stroke-width="2" fill="none" stroke-opacity="1" stroke-linecap="round" wiz-data=""></path><path wiz-type="curve" stroke="#333333" stroke-width="2" fill="none" stroke-opacity="1" stroke-linecap="round" wiz-data="530.42 58.57 532.59 61.83 534.76 72.67 538.01 75.93" d="M530.42, 58.57 C530.78,59.12 531.86,59.48 532.59,61.83 C533.31,64.18 533.85,70.32 534.76,72.67 C535.66,75.03 538.01,75.93 538.01,75.93"></path><path wiz-type="curve" stroke="#333333" stroke-width="2" fill="none" stroke-opacity="1" stroke-linecap="round" wiz-data=""></path><path wiz-type="curve" stroke="#333333" stroke-width="2" fill="none" stroke-opacity="1" stroke-linecap="round" wiz-data="547.77 56.40 545.60 62.91 539.10 71.59 535.84 73.76 534.76 72.67 536.93 71.59 539.10 78.10 538.01 91.11 536.93 91.11 539.10 81.35" d="M547.77, 56.40 C547.41,57.49 547.05,60.38 545.60,62.91 C544.16,65.44 540.72,69.78 539.10,71.59 C537.47,73.40 536.56,73.58 535.84,73.76 C535.12,73.94 534.58,73.04 534.76,72.67 C534.94,72.31 536.20,70.69 536.93,71.59 C537.65,72.49 538.91,74.84 539.10,78.10 C539.28,81.35 538.37,88.95 538.01,91.11 C537.65,93.28 536.75,92.74 536.93,91.11 C537.11,89.49 539.10,81.35 539.10,81.35"></path><path wiz-type="curve" stroke="#333333" stroke-width="2" fill="none" stroke-opacity="1" stroke-linecap="round" wiz-data=""></path><path wiz-type="curve" stroke="#333333" stroke-width="2" fill="none" stroke-opacity="1" stroke-linecap="round" wiz-data="556.45 52.07 556.45 61.83 555.37 61.83 556.45 55.32 562.96 50.98 561.87 57.49 559.70 59.66 566.21 49.90 568.38 59.66 570.55 61.83 573.81 61.83 578.14 56.40" d="M556.45, 52.07 C556.45,53.69 556.63,60.20 556.45,61.83 C556.27,63.45 555.37,62.91 555.37,61.83 C555.37,60.74 555.19,57.13 556.45,55.32 C557.72,53.51 562.06,50.62 562.96,50.98 C563.86,51.34 562.42,56.04 561.87,57.49 C561.33,58.94 558.98,60.92 559.70,59.66 C560.43,58.39 564.77,49.90 566.21,49.90 C567.66,49.90 567.66,57.67 568.38,59.66 C569.11,61.65 569.65,61.47 570.55,61.83 C571.46,62.19 572.54,62.73 573.81,61.83 C575.07,60.92 578.14,56.40 578.14,56.40"></path><path wiz-type="curve" stroke="#333333" stroke-width="2" fill="none" stroke-opacity="1" stroke-linecap="round" wiz-data=""></path><path fill="none" paint-order="fill stroke markers" stroke-linecap="round" stroke-linejoin="round" stroke-miterlimit="10" stroke-dasharray="" d="M 259.2 67.3" stroke="#333333" stroke-width="3" stroke-opacity="1" wiz-type="path"></path><g wiz-type="pathGroup"><path fill="none" paint-order="fill stroke markers" stroke-linecap="round" stroke-linejoin="round" stroke-miterlimit="10" stroke-dasharray="" d="M 259.2 67.3 L 502.2 67.3" stroke="#333333" stroke-width="3" stroke-opacity="1"></path><path fill="none" paint-order="fill stroke markers" stroke-linecap="round" stroke-linejoin="round" stroke-miterlimit="10" stroke-dasharray="" d="M 493.6 62.3 L 502.2 67.3 L 493.6 72.3" stroke="#333333" stroke-width="3" stroke-opacity="1"></path></g><path fill="none" paint-order="fill stroke markers" stroke-linecap="round" stroke-linejoin="round" stroke-miterlimit="10" stroke-dasharray="" d="M 492.5 58.6" stroke="#333333" stroke-width="3" stroke-opacity="1" wiz-type="path"></path><path fill="none" paint-order="fill stroke markers" stroke-linecap="round" stroke-linejoin="round" stroke-miterlimit="10" stroke-dasharray="" d="M 441.5 152.9" stroke="#333333" stroke-width="3" stroke-opacity="1" wiz-type="path"></path><g wiz-type="pathGroup"><path fill="none" paint-order="fill stroke markers" stroke-linecap="round" stroke-linejoin="round" stroke-miterlimit="10" stroke-dasharray="" d="M 441.5 152.9 L 516.3 103" stroke="#333333" stroke-width="3" stroke-opacity="1"></path><path fill="none" paint-order="fill stroke markers" stroke-linecap="round" stroke-linejoin="round" stroke-miterlimit="10" stroke-dasharray="" d="M 506.3 103.7 L 516.3 103 L 511.9 112" stroke="#333333" stroke-width="3" stroke-opacity="1"></path></g><path fill="none" paint-order="fill stroke markers" stroke-linecap="round" stroke-linejoin="round" stroke-miterlimit="10" stroke-dasharray="" d="M 502.2 100.9" stroke="#333333" stroke-width="3" stroke-opacity="1" wiz-type="path"></path></svg>